<?xml version="1.0" encoding="utf-8"?>
<!-- Generator: Adobe Illustrator 16.0.0, SVG Export Plug-In . SVG Version: 6.00 Build 0)  -->
<!DOCTYPE svg PUBLIC "-//W3C//DTD SVG 1.1//EN" "http://www.w3.org/Graphics/SVG/1.1/DTD/svg11.dtd">
<svg version="1.1" id="Layer_1" xmlns="http://www.w3.org/2000/svg" xmlns:xlink="http://www.w3.org/1999/xlink" x="0px" y="0px"
	 width="800px" height="243.289px" viewBox="0 0 800 243.289" enable-background="new 0 0 800 243.289" xml:space="preserve">
<path fill-rule="evenodd" clip-rule="evenodd" fill="#007BC1" d="M358.647,58.502c6.627-18.595,33.144-44.851,59.498-29.688
	c40.733,23.434,27.263,117.268-17.864,131.509c-26.469,8.353-41.834-12.054-48.784-35.032c-1.237-4.091-1.809-5.61-6.897-6.196
	c2.357,31.412,27.325,69.315,64.868,55.163c56.751-21.402,69.919-144.672,11.836-165.263
	c-28.387-10.063-51.431,13.476-64.647,38.082C354.32,51.419,352.821,56.144,358.647,58.502"/>
<path fill-rule="evenodd" clip-rule="evenodd" fill="#141756" d="M426.065,225.666c6.07-4.736,10.293-4.001,14.726-12.254
	c14.901-27.747-35.541-23.952-50.891-22.853c-1.495,2.419-14.081,48.221-14.487,52.771l15.324-0.14
	c1.984-2.555,4.054-11.654,4.983-15.106l14.503,0.057l5.927,15.185l16.256-0.037L426.065,225.666z M497.979,243.178
	c1.945-6.778,14.011-49.074,13.637-52.559c-17.763-1.052-38.731-2.507-52.741,8.724c-6.265,5.021-9.28,9.584-12.206,19.405
	c-1.215,4.075-6.584,21.595-6.272,24.717l15.58,0.066l4.486-15.257l24.956,0.215l-3.641,14.8L497.979,243.178z M463.808,218.334
	c-0.316-5.323,5.485-12.269,8.563-14.572c5.094-3.814,12.507-3.819,20.234-3.042c0.081,2.461-3.199,15.417-4.91,17.692
	L463.808,218.334z M360.647,243.488c7.758,0.005,5.731-1.991,7.896-9.612c2.305-8.117,11.018-38.348,11.341-42.959
	c-21.756-0.274-46.335-3.312-59.729,15.404c-4.032,5.639-11.176,28.784-11.775,37.028l15.871-0.13
	c1.652-4.547,2.719-10.38,4.552-14.977l24.553,0.168l-3.224,15.037L360.647,243.488z M331.707,218.339
	c-0.332-4.783,4.706-11.055,7.251-13.353c5.981-5.411,13.333-4.614,21.596-4.262c0.17,4.112-3.006,13.785-4.498,17.638
	L331.707,218.339z M507.34,243.279c30.586,0.665,54.427,2.885,64.898-22.624c15.127-36.837-34.559-29.947-50.779-30.087
	L507.34,243.279z M526.818,233.528c-0.035-4.652,6.832-27.84,8.57-32.827c12.808-1.069,27.47-0.749,20.193,19.186
	C550.609,233.51,542.201,233.971,526.818,233.528z M269.319,211.978c0.336-7.057,5.02-16.264,4.831-21.451l-15.474-0.051
	c-1.956,3.191-14.561,49.352-14.099,53.153l15.417-0.233c2.508-5.932,3.366-15.691,5.849-20.675
	c6.02-1.313,15.313-1.68,18.917,2.749c4.992,6.134,0.312,12.316,0.799,18.139l15.444-0.203c1.998-3.118,3.868-10.733,2.957-15.93
	c-1.225-6.997-4.359-6.676-6.778-11.314c1.618-2.521,14.174-8.649,15.324-25.388l-15.383,0.135
	C290.354,201.301,295.424,212.449,269.319,211.978z M642.132,190.425c-27.809-2.564-52.124,1.106-60.906,22.284
	c-14.258,34.38,24.398,31.956,46.05,30.49c0.157-0.188,0.318-0.469,0.408-0.623c1.668-2.836,2.652-5.41,2.144-9.038
	c-7.521,0.068-15.136,0.097-22.651,0.055c-7.195-0.042-11.742-3.313-10.797-11.301l36.994,0.023c1.192-2.415,2.882-6.647,2.8-10.374
	l-36.666,0.019c1.705-15.757,29.858-10.491,40.325-11.523L642.132,190.425z M665.724,200.863
	c35.478-5.136,15.255,24.109,13.659,42.5l16.04-0.102c1.872-6.663,3.686-15.331,5.964-22.23
	c6.338-19.229-2.705-30.226-22.283-30.258c-8.473-0.015-19.289-0.387-27.579,0.381l-13.852,52.195l15.97-0.084L665.724,200.863z
	 M760.117,233.57c1.768-5.955,35.334-35.977,37.206-42.736c-18.033,0.102-38.96-0.628-56.242,0.424l-1.859,9.393l27.34,0.204
	c-0.65,4.044-35.023,35.899-37.572,42.48l55.423-0.073c1.821-2.541,2.95-6.449,3.02-9.627L760.117,233.57z M730.012,202.213
	l-16.062,0.011l-10.855,41.158l16.233-0.47L730.012,202.213z M733.105,190.425l-15.86,0.04l-2.174,9.366l16.177-0.204
	L733.105,190.425z M403.338,200.743c8.088-0.902,25.54-2.094,20.703,10.17c-3.435,8.696-15.032,7.663-25.528,7.006L403.338,200.743z
	"/>
<path fill-rule="evenodd" clip-rule="evenodd" fill="#007CC2" d="M248.631,191.029c-70.424-5.657-67.417,23.991-52.672,29.468
	c9.191,3.419,21.271-0.958,26.61,5.169c0.238,8.616-8.769,7.896-16.55,7.876c-7.557-0.009-15.758-0.293-23.238,0.112
	c-1.18,2.613-2.073,6.075-2.316,9.652c19.46-0.073,44.803,3.681,56.478-9.007c7.145-7.759,5.067-16.715-3.796-20.2
	c-7.575-2.973-20.667,0.317-26.771-4.847c-1.251-13.995,29.341-7.128,40.012-8.836L248.631,191.029z M75.685,202.265
	c-15.372-0.619-15.759-1.354-17.041,4.35c-1.271,5.643-3.691,10.691-3.871,16.427c-0.416,13.483,8.455,20.085,20.83,20.29
	c6.938,0.117,13.966-0.028,20.921,0.022c12.525,0.098,9.166,1.884,12.343-8.546c1.741-5.708,8.351-26.812,8.576-32.618
	l-15.861,0.191c-2.62,7.286-6.197,25.877-9.235,30.96C58.406,236.726,75.28,215.44,75.685,202.265z M51.15,233.704
	c-6.685-0.576-14.68-0.102-21.523-0.134c-24.236-0.122-3.72-30.575-4.345-43.179l-15.683,0.271c-1.326,3.274-2.126,8.09-3.08,11.217
	c-11.702,38.312-3.877,43.247,42.174,41.633C49.724,241.6,51.233,236.635,51.15,233.704z M118.294,199.706
	c0.965-1.95,2.374-6.291,2.266-9.3l-15.52,0.051c-1.197,2.331-2.317,5.899-2.572,9.36L118.294,199.706z M76.558,199.729
	c1.338-3.219,2.379-5.652,2.176-9.329l-15.518,0.104l-2.477,9.286L76.558,199.729z M168.875,216.161
	c3.674-3.941,6.643-4.531,10.421-10.343c1.839-2.833,5.564-10.937,5.424-15.287l-15.475-0.089
	c-7.053,10.505-1.357,21.986-27.75,21.457c0.175-7.276,4.074-13.646,4.521-21.056l-15.677-0.146
	c-2.591,7.337-5.641,18.749-7.587,26.646c-1.515,6.141-6.647,21.241-6.645,26.237l15.897-0.278
	c2.266-4.299,3.659-15.575,6.344-20.913c20.435-0.684,21.943,0.392,18.9,20.987l16.305-0.331
	C179.271,225.377,174.646,223.824,168.875,216.161z"/>
<path fill-rule="evenodd" clip-rule="evenodd" fill="#007BC1" d="M389.969,131.582c-1.391-4.824-9.186-18.1-11.915-23.229
	c-4.621-8.689-34.938-67.329-37.468-70.299l-31.938-0.217c1.614,4.076,16.088,19.512,19.967,23.932
	c6.286,7.169,13.591,15.348,20.179,23.238C354.741,92.127,386.731,129.702,389.969,131.582"/>
<path fill-rule="evenodd" clip-rule="evenodd" fill="#141756" d="M403.01,91.744l3.348-3.457l-8.36-4.32L403.01,91.744z
	 M384.051,111.291c5.695-1.975,16.547-11.112,26.839-12.541c7.165-0.996,7.021,1.136,11.644,1.714
	c-0.461-13.358-10.019-8.024-15.123-14.664c-1.674-2.174-2.624-3.279-5.937-4.305c-5.605-1.733-28.73-5.02-34.854-5.118
	c0.183,3.569,6.014,13.75,7.935,17.423L384.051,111.291z"/>
<path fill-rule="evenodd" clip-rule="evenodd" fill="#1C8BCB" d="M390.885,138.509c-0.993-2.68-31.653-36.558-37.401-42.813
	c-3.231-3.517-25.004-30.058-29.619-30.849c-4.695-0.803-14.978-0.079-20.626-0.436c1.307,3.441,0.423,2.048,4.895,5.635
	c2.374,1.905,3.128,2.677,5.522,4.641C324.173,83.318,387.291,136.723,390.885,138.509"/>
<path fill-rule="evenodd" clip-rule="evenodd" fill="#089BD7" d="M293.284,81.376c0.503,0.695,83.118,52.025,87.323,53.457
	c-3.773-4.628-13.96-11.539-19.521-15.917c-6.667-5.253-46.524-38.859-51.394-39.227C306.635,79.457,294.996,80.415,293.284,81.376"
	/>
</svg>
